<svg width="16" height="16" viewBox="0 0 16 16" fill="none" xmlns="http://www.w3.org/2000/svg">
<path d="M6 4.5C6 3.96957 6.21071 3.46086 6.58579 3.08579C6.96086 2.71071 7.46957 2.5 8 2.5C8.53043 2.5 9.03914 2.71071 9.41421 3.08579C9.78929 3.46086 10 3.96957 10 4.5L1.2 11.1C1.11605 11.163 1.05403 11.2507 1.02274 11.3509C0.991453 11.4511 0.992473 11.5586 1.02566 11.6581C1.05884 11.7577 1.12251 11.8443 1.20764 11.9056C1.29278 11.967 1.39506 12 1.5 12H14.5C14.6049 12 14.7072 11.967 14.7924 11.9056C14.8775 11.8443 14.9412 11.7577 14.9743 11.6581C15.0075 11.5586 15.0085 11.4511 14.9773 11.3509C14.946 11.2507 14.884 11.163 14.8 11.1L8 6" stroke="#0C2752" stroke-linecap="round" stroke-linejoin="round"/>
</svg>
