<svg width="24" height="24" viewBox="0 0 24 24" fill="none" xmlns="http://www.w3.org/2000/svg">
    <path d="M12.534 19.8655L20.1278 12.2718C21.9934 10.3968 22.2653 7.33114 20.5028 5.37176C20.0607 4.87799 19.5227 4.47952 18.9215 4.20071C18.3203 3.9219 17.6685 3.7686 17.0061 3.75018C16.3436 3.73175 15.6844 3.84859 15.0686 4.09355C14.4528 4.33851 13.8934 4.70645 13.4246 5.17489L11.9996 6.60926L10.7715 5.37176C8.89652 3.50614 5.83089 3.23426 3.87152 4.99676C3.37774 5.43878 2.97928 5.97683 2.70047 6.57804C2.42166 7.17925 2.26836 7.831 2.24993 8.49346C2.23151 9.15592 2.34834 9.81518 2.5933 10.431C2.83826 11.0467 3.2062 11.6061 3.67464 12.0749L11.4653 19.8655C11.6075 20.0063 11.7995 20.0854 11.9996 20.0854C12.1998 20.0854 12.3918 20.0063 12.534 19.8655V19.8655Z" stroke="#0C2752" stroke-width="1" stroke-linecap="round" stroke-linejoin="round"></path>
</svg>