<svg width="14" height="14" viewBox="0 0 14 14" fill="none" xmlns="http://www.w3.org/2000/svg">
<path d="M7.16617 5.75755C7.50742 5.75755 7.77867 5.4863 7.77867 5.1538C7.77867 4.8213 7.50742 4.55005 7.16617 4.55005C6.83367 4.55005 6.57117 4.8213 6.57117 5.1538C6.57117 5.4863 6.83367 5.75755 7.16617 5.75755ZM6.64992 10.3338C6.64992 10.4213 6.72867 10.5 6.81617 10.5H7.54242C7.62992 10.5 7.70867 10.4213 7.70867 10.3338V7.1663C7.70867 7.07005 7.62992 7.00005 7.54242 7.00005H6.81617C6.72867 7.00005 6.64992 7.07005 6.64992 7.1663V10.3338Z" fill="#2D2F32"/>
<circle cx="7" cy="7" r="6.625" stroke="#2D2F32" stroke-width="0.75"/>
</svg>
